<svg width="3750" height="640" viewBox="0 0 3750 640" fill="none" xmlns="http://www.w3.org/2000/svg">
<rect width="3750" height="640" rx="320" fill="#FCBB32"/>
<path d="M1054.55 364.8H1063.55C1070.35 364.8 1076.42 363.733 1081.75 361.6C1087.09 359.467 1091.55 356.533 1095.15 352.8C1098.89 349.067 1101.69 344.667 1103.55 339.6C1105.55 334.4 1106.55 328.733 1106.55 322.6C1106.55 316.6 1105.55 311 1103.55 305.8C1101.55 300.6 1098.69 296.133 1094.95 292.4C1091.35 288.667 1086.89 285.733 1081.55 283.6C1076.22 281.467 1070.22 280.4 1063.55 280.4H1054.55V364.8ZM1015.35 247.2H1073.35C1083.62 247.2 1093.22 249.267 1102.15 253.4C1111.22 257.533 1119.09 263.067 1125.75 270C1132.55 276.8 1137.89 284.8 1141.75 294C1145.62 303.067 1147.55 312.6 1147.55 322.6C1147.55 332.467 1145.62 342 1141.75 351.2C1138.02 360.267 1132.75 368.267 1125.95 375.2C1119.29 382.133 1111.42 387.667 1102.35 391.8C1093.42 395.933 1083.75 398 1073.35 398H1015.35V247.2ZM1203.38 346.2C1203.38 349.667 1203.98 352.867 1205.18 355.8C1206.51 358.6 1208.18 361.067 1210.18 363.2C1212.31 365.333 1214.78 367 1217.58 368.2C1220.51 369.4 1223.58 370 1226.78 370C1229.98 370 1232.98 369.4 1235.78 368.2C1238.71 367 1241.18 365.333 1243.18 363.2C1245.31 361.067 1246.98 358.6 1248.18 355.8C1249.51 352.867 1250.18 349.733 1250.18 346.4C1250.18 343.2 1249.51 340.2 1248.18 337.4C1246.98 334.467 1245.31 331.933 1243.18 329.8C1241.18 327.667 1238.71 326 1235.78 324.8C1232.98 323.6 1229.98 323 1226.78 323C1223.58 323 1220.51 323.6 1217.58 324.8C1214.78 326 1212.31 327.667 1210.18 329.8C1208.18 331.933 1206.51 334.4 1205.18 337.2C1203.98 340 1203.38 343 1203.38 346.2ZM1165.18 345.8C1165.18 338.2 1166.71 331.133 1169.78 324.6C1172.85 317.933 1177.11 312.2 1182.58 307.4C1188.05 302.467 1194.51 298.6 1201.98 295.8C1209.58 293 1217.85 291.6 1226.78 291.6C1235.58 291.6 1243.71 293 1251.18 295.8C1258.78 298.467 1265.31 302.267 1270.78 307.2C1276.38 312 1280.71 317.8 1283.78 324.6C1286.85 331.267 1288.38 338.667 1288.38 346.8C1288.38 354.933 1286.78 362.4 1283.58 369.2C1280.51 375.867 1276.25 381.667 1270.78 386.6C1265.31 391.4 1258.71 395.133 1250.98 397.8C1243.38 400.467 1235.11 401.8 1226.18 401.8C1217.38 401.8 1209.25 400.467 1201.78 397.8C1194.31 395.133 1187.85 391.333 1182.38 386.4C1177.05 381.467 1172.85 375.6 1169.78 368.8C1166.71 361.867 1165.18 354.2 1165.18 345.8ZM1309.22 295.4H1345.42V308.4C1350.35 302.4 1355.35 298.4 1360.42 296.4C1365.49 294.267 1371.42 293.2 1378.22 293.2C1385.42 293.2 1391.55 294.4 1396.62 296.8C1401.82 299.067 1406.22 302.333 1409.82 306.6C1412.75 310.067 1414.75 313.933 1415.82 318.2C1416.89 322.467 1417.42 327.333 1417.42 332.8V398H1381.22V346.2C1381.22 341.133 1380.82 337.067 1380.02 334C1379.35 330.8 1378.09 328.267 1376.22 326.4C1374.62 324.8 1372.82 323.667 1370.82 323C1368.82 322.333 1366.69 322 1364.42 322C1358.29 322 1353.55 323.867 1350.22 327.6C1347.02 331.2 1345.42 336.4 1345.42 343.2V398H1309.22V295.4ZM1475.63 346.4C1475.63 349.733 1476.23 352.867 1477.43 355.8C1478.63 358.6 1480.23 361.067 1482.23 363.2C1484.37 365.333 1486.83 367 1489.63 368.2C1492.57 369.4 1495.7 370 1499.03 370C1502.23 370 1505.23 369.4 1508.03 368.2C1510.97 367 1513.43 365.333 1515.43 363.2C1517.57 361.067 1519.23 358.6 1520.43 355.8C1521.77 353 1522.43 350 1522.43 346.8C1522.43 343.6 1521.77 340.6 1520.43 337.8C1519.23 334.867 1517.57 332.333 1515.43 330.2C1513.43 328.067 1510.97 326.4 1508.03 325.2C1505.23 324 1502.23 323.4 1499.03 323.4C1495.7 323.4 1492.57 324 1489.63 325.2C1486.83 326.4 1484.37 328.067 1482.23 330.2C1480.23 332.333 1478.63 334.8 1477.43 337.6C1476.23 340.267 1475.63 343.2 1475.63 346.4ZM1521.23 295.4H1557.63V398H1521.23V386.6C1513.5 396.333 1503.03 401.2 1489.83 401.2C1482.37 401.2 1475.5 399.867 1469.23 397.2C1462.97 394.4 1457.5 390.533 1452.83 385.6C1448.17 380.667 1444.5 374.867 1441.83 368.2C1439.3 361.533 1438.03 354.267 1438.03 346.4C1438.03 339.067 1439.3 332.133 1441.83 325.6C1444.37 318.933 1447.9 313.133 1452.43 308.2C1456.97 303.267 1462.37 299.4 1468.63 296.6C1474.9 293.667 1481.83 292.2 1489.43 292.2C1502.23 292.2 1512.83 296.667 1521.23 305.6V295.4ZM1622.67 325.6V398H1586.47V325.6H1574.47V295.4H1586.47V264.6H1622.67V295.4H1643.27V325.6H1622.67ZM1733.83 331.8C1732.63 326.733 1730.16 322.667 1726.43 319.6C1722.7 316.533 1718.16 315 1712.83 315C1707.23 315 1702.63 316.467 1699.03 319.4C1695.56 322.333 1693.36 326.467 1692.43 331.8H1733.83ZM1691.43 352.8C1691.43 368.4 1698.76 376.2 1713.43 376.2C1721.3 376.2 1727.23 373 1731.23 366.6H1766.23C1759.16 390.067 1741.5 401.8 1713.23 401.8C1704.56 401.8 1696.63 400.533 1689.43 398C1682.23 395.333 1676.03 391.6 1670.83 386.8C1665.76 382 1661.83 376.267 1659.03 369.6C1656.23 362.933 1654.83 355.467 1654.83 347.2C1654.83 338.667 1656.16 331 1658.83 324.2C1661.5 317.267 1665.3 311.4 1670.23 306.6C1675.16 301.8 1681.1 298.133 1688.03 295.6C1695.1 292.933 1703.03 291.6 1711.83 291.6C1720.5 291.6 1728.3 292.933 1735.23 295.6C1742.16 298.133 1748.03 301.867 1752.83 306.8C1757.63 311.733 1761.3 317.8 1763.83 325C1766.36 332.067 1767.63 340.067 1767.63 349V352.8H1691.43ZM1884.29 295.4L1908.89 349.4L1934.49 295.4H1957.29L1982.89 351L2008.69 295.4H2048.89L1995.29 398H1971.09L1945.49 341.8L1921.09 398H1896.49L1843.89 295.4H1884.29ZM2097.57 295.4V398H2061.37V295.4H2097.57ZM2058.97 256C2058.97 253.2 2059.5 250.6 2060.57 248.2C2061.64 245.667 2063.1 243.467 2064.97 241.6C2066.84 239.733 2068.97 238.267 2071.37 237.2C2073.9 236.133 2076.57 235.6 2079.37 235.6C2082.17 235.6 2084.77 236.133 2087.17 237.2C2089.7 238.267 2091.9 239.733 2093.77 241.6C2095.64 243.467 2097.1 245.667 2098.17 248.2C2099.24 250.6 2099.77 253.2 2099.77 256C2099.77 258.8 2099.24 261.467 2098.17 264C2097.1 266.4 2095.64 268.533 2093.77 270.4C2091.9 272.267 2089.7 273.733 2087.17 274.8C2084.77 275.867 2082.17 276.4 2079.37 276.4C2076.57 276.4 2073.9 275.867 2071.37 274.8C2068.97 273.733 2066.84 272.267 2064.97 270.4C2063.1 268.533 2061.64 266.4 2060.57 264C2059.5 261.467 2058.97 258.8 2058.97 256ZM2162.71 325.6V398H2126.51V325.6H2114.51V295.4H2126.51V264.6H2162.71V295.4H2183.31V325.6H2162.71ZM2201.6 232H2237.8V308.4C2242.74 302.4 2247.74 298.4 2252.8 296.4C2257.87 294.267 2263.8 293.2 2270.6 293.2C2283.54 293.2 2293.27 296.8 2299.8 304C2306.47 311.067 2309.8 320.667 2309.8 332.8V398H2273.6V346.2C2273.6 341 2273.2 336.8 2272.4 333.6C2271.6 330.4 2270.27 327.933 2268.4 326.2C2265.2 323.4 2261.34 322 2256.8 322C2250.67 322 2245.94 323.867 2242.6 327.6C2239.4 331.2 2237.8 336.4 2237.8 343.2V398H2201.6V232ZM2444.98 316.4H2457.98C2472.38 316.4 2479.58 310.133 2479.58 297.6C2479.58 285.067 2472.38 278.8 2457.98 278.8H2444.98V316.4ZM2444.98 398H2405.78V247.2H2468.18C2485.12 247.2 2498.05 251.6 2506.98 260.4C2516.05 269.2 2520.58 281.6 2520.58 297.6C2520.58 313.6 2516.05 326 2506.98 334.8C2498.05 343.6 2485.12 348 2468.18 348H2444.98V398ZM2569.19 346.4C2569.19 349.733 2569.79 352.867 2570.99 355.8C2572.19 358.6 2573.79 361.067 2575.79 363.2C2577.92 365.333 2580.39 367 2583.19 368.2C2586.12 369.4 2589.25 370 2592.59 370C2595.79 370 2598.79 369.4 2601.59 368.2C2604.52 367 2606.99 365.333 2608.99 363.2C2611.12 361.067 2612.79 358.6 2613.99 355.8C2615.32 353 2615.99 350 2615.99 346.8C2615.99 343.6 2615.32 340.6 2613.99 337.8C2612.79 334.867 2611.12 332.333 2608.99 330.2C2606.99 328.067 2604.52 326.4 2601.59 325.2C2598.79 324 2595.79 323.4 2592.59 323.4C2589.25 323.4 2586.12 324 2583.19 325.2C2580.39 326.4 2577.92 328.067 2575.79 330.2C2573.79 332.333 2572.19 334.8 2570.99 337.6C2569.79 340.267 2569.19 343.2 2569.19 346.4ZM2614.79 295.4H2651.19V398H2614.79V386.6C2607.05 396.333 2596.59 401.2 2583.39 401.2C2575.92 401.2 2569.05 399.867 2562.79 397.2C2556.52 394.4 2551.05 390.533 2546.39 385.6C2541.72 380.667 2538.05 374.867 2535.39 368.2C2532.85 361.533 2531.59 354.267 2531.59 346.4C2531.59 339.067 2532.85 332.133 2535.39 325.6C2537.92 318.933 2541.45 313.133 2545.99 308.2C2550.52 303.267 2555.92 299.4 2562.19 296.6C2568.45 293.667 2575.39 292.2 2582.99 292.2C2595.79 292.2 2606.39 296.667 2614.79 305.6V295.4ZM2714.98 384L2665.38 295.4H2707.38L2734.78 348L2761.38 295.4H2802.98L2720.58 449.2H2679.98L2714.98 384ZM2858.07 316.4H2871.07C2885.47 316.4 2892.67 310.133 2892.67 297.6C2892.67 285.067 2885.47 278.8 2871.07 278.8H2858.07V316.4ZM2858.07 398H2818.87V247.2H2881.27C2898.2 247.2 2911.14 251.6 2920.07 260.4C2929.14 269.2 2933.67 281.6 2933.67 297.6C2933.67 313.6 2929.14 326 2920.07 334.8C2911.14 343.6 2898.2 348 2881.27 348H2858.07V398ZM2982.27 346.4C2982.27 349.733 2982.87 352.867 2984.07 355.8C2985.27 358.6 2986.87 361.067 2988.87 363.2C2991.01 365.333 2993.47 367 2996.27 368.2C2999.21 369.4 3002.34 370 3005.67 370C3008.87 370 3011.87 369.4 3014.67 368.2C3017.61 367 3020.07 365.333 3022.07 363.2C3024.21 361.067 3025.87 358.6 3027.07 355.8C3028.41 353 3029.07 350 3029.07 346.8C3029.07 343.6 3028.41 340.6 3027.07 337.8C3025.87 334.867 3024.21 332.333 3022.07 330.2C3020.07 328.067 3017.61 326.4 3014.67 325.2C3011.87 324 3008.87 323.4 3005.67 323.4C3002.34 323.4 2999.21 324 2996.27 325.2C2993.47 326.4 2991.01 328.067 2988.87 330.2C2986.87 332.333 2985.27 334.8 2984.07 337.6C2982.87 340.267 2982.27 343.2 2982.27 346.4ZM3027.87 295.4H3064.27V398H3027.87V386.6C3020.14 396.333 3009.67 401.2 2996.47 401.2C2989.01 401.2 2982.14 399.867 2975.87 397.2C2969.61 394.4 2964.14 390.533 2959.47 385.6C2954.81 380.667 2951.14 374.867 2948.47 368.2C2945.94 361.533 2944.67 354.267 2944.67 346.4C2944.67 339.067 2945.94 332.133 2948.47 325.6C2951.01 318.933 2954.54 313.133 2959.07 308.2C2963.61 303.267 2969.01 299.4 2975.27 296.6C2981.54 293.667 2988.47 292.2 2996.07 292.2C3008.87 292.2 3019.47 296.667 3027.87 305.6V295.4ZM3125.11 232V398H3088.91V232H3125.11Z" fill="#27346A"/>
<g clip-path="url(#clip0_11_8)">
<path d="M692 217.67L692.05 217.69C693.09 213.26 696.87 210 701.6 210H836.32C836.49 210 836.66 209.93 836.83 209.94C833.96 162.15 793.87 140 758.5 140H623.78C619.04 140 615.26 143.35 614.23 147.77L614.18 147.75L555.29 418.13L555.42 418.14C555.28 418.78 555.03 419.39 555.03 420.08C555.03 425.61 559.5 429.99 565.03 429.99H645.74L692 217.67Z" fill="#1565C0"/>
<path d="M836.83 209.94C837.36 218.7 836.78 228.23 834.54 238.76C821.73 298.71 775.42 329.91 718.19 329.91C718.19 329.91 683.49 329.91 675.06 329.91C669.85 329.91 667.39 332.97 666.26 335.31L648.86 415.8L645.81 430.09H645.75L633.12 488.05L633.25 488.06C633.11 488.7 632.86 489.31 632.86 490C632.86 495.53 637.33 500 642.86 500H716.19L716.32 499.9C721.04 499.83 724.79 496.46 725.77 492.02L725.95 491.87L744.07 407.71C744.07 407.71 745.33 399.68 753.77 399.68C762.21 399.68 795.55 399.68 795.55 399.68C852.78 399.68 899.56 368.62 912.38 308.66C926.8 241.06 878.58 210.19 836.83 209.94Z" fill="#039BE5"/>
<path d="M701.6 210C696.86 210 693.08 213.26 692.05 217.69L692 217.67L666.25 335.32C667.38 332.98 669.84 329.92 675.05 329.92C683.49 329.92 717.4 329.92 717.4 329.92C774.63 329.92 821.72 298.72 834.53 238.77C836.78 228.24 837.35 218.71 836.82 209.95C836.66 209.93 836.48 210 836.32 210H701.6Z" fill="#283593"/>
</g>
<defs>
<clipPath id="clip0_11_8">
<rect width="360" height="360" fill="white" transform="translate(555 140)"/>
</clipPath>
</defs>
</svg>
