<svg width="3000" height="640" viewBox="0 0 3000 640" fill="none" xmlns="http://www.w3.org/2000/svg">
<rect width="3000" height="640" rx="320" fill="#FCBB32"/>
<path d="M672.055 364.8H681.055C687.855 364.8 693.921 363.733 699.255 361.6C704.588 359.467 709.055 356.533 712.655 352.8C716.388 349.067 719.188 344.667 721.055 339.6C723.055 334.4 724.055 328.733 724.055 322.6C724.055 316.6 723.055 311 721.055 305.8C719.055 300.6 716.188 296.133 712.455 292.4C708.855 288.667 704.388 285.733 699.055 283.6C693.721 281.467 687.721 280.4 681.055 280.4H672.055V364.8ZM632.855 247.2H690.855C701.121 247.2 710.721 249.267 719.655 253.4C728.721 257.533 736.588 263.067 743.255 270C750.055 276.8 755.388 284.8 759.255 294C763.121 303.067 765.055 312.6 765.055 322.6C765.055 332.467 763.121 342 759.255 351.2C755.521 360.267 750.255 368.267 743.455 375.2C736.788 382.133 728.921 387.667 719.855 391.8C710.921 395.933 701.255 398 690.855 398H632.855V247.2ZM820.881 346.2C820.881 349.667 821.481 352.867 822.681 355.8C824.015 358.6 825.681 361.067 827.681 363.2C829.815 365.333 832.281 367 835.081 368.2C838.015 369.4 841.081 370 844.281 370C847.481 370 850.481 369.4 853.281 368.2C856.215 367 858.681 365.333 860.681 363.2C862.815 361.067 864.481 358.6 865.681 355.8C867.015 352.867 867.681 349.733 867.681 346.4C867.681 343.2 867.015 340.2 865.681 337.4C864.481 334.467 862.815 331.933 860.681 329.8C858.681 327.667 856.215 326 853.281 324.8C850.481 323.6 847.481 323 844.281 323C841.081 323 838.015 323.6 835.081 324.8C832.281 326 829.815 327.667 827.681 329.8C825.681 331.933 824.015 334.4 822.681 337.2C821.481 340 820.881 343 820.881 346.2ZM782.681 345.8C782.681 338.2 784.215 331.133 787.281 324.6C790.348 317.933 794.615 312.2 800.081 307.4C805.548 302.467 812.015 298.6 819.481 295.8C827.081 293 835.348 291.6 844.281 291.6C853.081 291.6 861.215 293 868.681 295.8C876.281 298.467 882.815 302.267 888.281 307.2C893.881 312 898.215 317.8 901.281 324.6C904.348 331.267 905.881 338.667 905.881 346.8C905.881 354.933 904.281 362.4 901.081 369.2C898.015 375.867 893.748 381.667 888.281 386.6C882.815 391.4 876.215 395.133 868.481 397.8C860.881 400.467 852.615 401.8 843.681 401.8C834.881 401.8 826.748 400.467 819.281 397.8C811.815 395.133 805.348 391.333 799.881 386.4C794.548 381.467 790.348 375.6 787.281 368.8C784.215 361.867 782.681 354.2 782.681 345.8ZM926.72 295.4H962.92V308.4C967.854 302.4 972.854 298.4 977.92 296.4C982.987 294.267 988.92 293.2 995.72 293.2C1002.92 293.2 1009.05 294.4 1014.12 296.8C1019.32 299.067 1023.72 302.333 1027.32 306.6C1030.25 310.067 1032.25 313.933 1033.32 318.2C1034.39 322.467 1034.92 327.333 1034.92 332.8V398H998.72V346.2C998.72 341.133 998.32 337.067 997.52 334C996.854 330.8 995.587 328.267 993.72 326.4C992.12 324.8 990.32 323.667 988.32 323C986.32 322.333 984.187 322 981.92 322C975.787 322 971.054 323.867 967.72 327.6C964.52 331.2 962.92 336.4 962.92 343.2V398H926.72V295.4ZM1093.13 346.4C1093.13 349.733 1093.73 352.867 1094.93 355.8C1096.13 358.6 1097.73 361.067 1099.73 363.2C1101.87 365.333 1104.33 367 1107.13 368.2C1110.07 369.4 1113.2 370 1116.53 370C1119.73 370 1122.73 369.4 1125.53 368.2C1128.47 367 1130.93 365.333 1132.93 363.2C1135.07 361.067 1136.73 358.6 1137.93 355.8C1139.27 353 1139.93 350 1139.93 346.8C1139.93 343.6 1139.27 340.6 1137.93 337.8C1136.73 334.867 1135.07 332.333 1132.93 330.2C1130.93 328.067 1128.47 326.4 1125.53 325.2C1122.73 324 1119.73 323.4 1116.53 323.4C1113.2 323.4 1110.07 324 1107.13 325.2C1104.33 326.4 1101.87 328.067 1099.73 330.2C1097.73 332.333 1096.13 334.8 1094.93 337.6C1093.73 340.267 1093.13 343.2 1093.13 346.4ZM1138.73 295.4H1175.13V398H1138.73V386.6C1131 396.333 1120.53 401.2 1107.33 401.2C1099.87 401.2 1093 399.867 1086.73 397.2C1080.47 394.4 1075 390.533 1070.33 385.6C1065.67 380.667 1062 374.867 1059.33 368.2C1056.8 361.533 1055.53 354.267 1055.53 346.4C1055.53 339.067 1056.8 332.133 1059.33 325.6C1061.87 318.933 1065.4 313.133 1069.93 308.2C1074.47 303.267 1079.87 299.4 1086.13 296.6C1092.4 293.667 1099.33 292.2 1106.93 292.2C1119.73 292.2 1130.33 296.667 1138.73 305.6V295.4ZM1240.17 325.6V398H1203.97V325.6H1191.97V295.4H1203.97V264.6H1240.17V295.4H1260.77V325.6H1240.17ZM1351.33 331.8C1350.13 326.733 1347.66 322.667 1343.93 319.6C1340.2 316.533 1335.66 315 1330.33 315C1324.73 315 1320.13 316.467 1316.53 319.4C1313.06 322.333 1310.86 326.467 1309.93 331.8H1351.33ZM1308.93 352.8C1308.93 368.4 1316.26 376.2 1330.93 376.2C1338.8 376.2 1344.73 373 1348.73 366.6H1383.73C1376.66 390.067 1359 401.8 1330.73 401.8C1322.06 401.8 1314.13 400.533 1306.93 398C1299.73 395.333 1293.53 391.6 1288.33 386.8C1283.26 382 1279.33 376.267 1276.53 369.6C1273.73 362.933 1272.33 355.467 1272.33 347.2C1272.33 338.667 1273.66 331 1276.33 324.2C1279 317.267 1282.8 311.4 1287.73 306.6C1292.66 301.8 1298.6 298.133 1305.53 295.6C1312.6 292.933 1320.53 291.6 1329.33 291.6C1338 291.6 1345.8 292.933 1352.73 295.6C1359.66 298.133 1365.53 301.867 1370.33 306.8C1375.13 311.733 1378.8 317.8 1381.33 325C1383.86 332.067 1385.13 340.067 1385.13 349V352.8H1308.93ZM1501.79 295.4L1526.39 349.4L1551.99 295.4H1574.79L1600.39 351L1626.19 295.4H1666.39L1612.79 398H1588.59L1562.99 341.8L1538.59 398H1513.99L1461.39 295.4H1501.79ZM1715.07 295.4V398H1678.87V295.4H1715.07ZM1676.47 256C1676.47 253.2 1677 250.6 1678.07 248.2C1679.14 245.667 1680.6 243.467 1682.47 241.6C1684.34 239.733 1686.47 238.267 1688.87 237.2C1691.4 236.133 1694.07 235.6 1696.87 235.6C1699.67 235.6 1702.27 236.133 1704.67 237.2C1707.2 238.267 1709.4 239.733 1711.27 241.6C1713.14 243.467 1714.6 245.667 1715.67 248.2C1716.74 250.6 1717.27 253.2 1717.27 256C1717.27 258.8 1716.74 261.467 1715.67 264C1714.6 266.4 1713.14 268.533 1711.27 270.4C1709.4 272.267 1707.2 273.733 1704.67 274.8C1702.27 275.867 1699.67 276.4 1696.87 276.4C1694.07 276.4 1691.4 275.867 1688.87 274.8C1686.47 273.733 1684.34 272.267 1682.47 270.4C1680.6 268.533 1679.14 266.4 1678.07 264C1677 261.467 1676.47 258.8 1676.47 256ZM1780.21 325.6V398H1744.01V325.6H1732.01V295.4H1744.01V264.6H1780.21V295.4H1800.81V325.6H1780.21ZM1819.1 232H1855.3V308.4C1860.24 302.4 1865.24 298.4 1870.3 296.4C1875.37 294.267 1881.3 293.2 1888.1 293.2C1901.04 293.2 1910.77 296.8 1917.3 304C1923.97 311.067 1927.3 320.667 1927.3 332.8V398H1891.1V346.2C1891.1 341 1890.7 336.8 1889.9 333.6C1889.1 330.4 1887.77 327.933 1885.9 326.2C1882.7 323.4 1878.84 322 1874.3 322C1868.17 322 1863.44 323.867 1860.1 327.6C1856.9 331.2 1855.3 336.4 1855.3 343.2V398H1819.1V232ZM2062.48 316.4H2075.48C2089.88 316.4 2097.08 310.133 2097.08 297.6C2097.08 285.067 2089.88 278.8 2075.48 278.8H2062.48V316.4ZM2062.48 398H2023.28V247.2H2085.68C2102.62 247.2 2115.55 251.6 2124.48 260.4C2133.55 269.2 2138.08 281.6 2138.08 297.6C2138.08 313.6 2133.55 326 2124.48 334.8C2115.55 343.6 2102.62 348 2085.68 348H2062.48V398ZM2186.69 346.4C2186.69 349.733 2187.29 352.867 2188.49 355.8C2189.69 358.6 2191.29 361.067 2193.29 363.2C2195.42 365.333 2197.89 367 2200.69 368.2C2203.62 369.4 2206.75 370 2210.09 370C2213.29 370 2216.29 369.4 2219.09 368.2C2222.02 367 2224.49 365.333 2226.49 363.2C2228.62 361.067 2230.29 358.6 2231.49 355.8C2232.82 353 2233.49 350 2233.49 346.8C2233.49 343.6 2232.82 340.6 2231.49 337.8C2230.29 334.867 2228.62 332.333 2226.49 330.2C2224.49 328.067 2222.02 326.4 2219.09 325.2C2216.29 324 2213.29 323.4 2210.09 323.4C2206.75 323.4 2203.62 324 2200.69 325.2C2197.89 326.4 2195.42 328.067 2193.29 330.2C2191.29 332.333 2189.69 334.8 2188.49 337.6C2187.29 340.267 2186.69 343.2 2186.69 346.4ZM2232.29 295.4H2268.69V398H2232.29V386.6C2224.55 396.333 2214.09 401.2 2200.89 401.2C2193.42 401.2 2186.55 399.867 2180.29 397.2C2174.02 394.4 2168.55 390.533 2163.89 385.6C2159.22 380.667 2155.55 374.867 2152.89 368.2C2150.35 361.533 2149.09 354.267 2149.09 346.4C2149.09 339.067 2150.35 332.133 2152.89 325.6C2155.42 318.933 2158.95 313.133 2163.49 308.2C2168.02 303.267 2173.42 299.4 2179.69 296.6C2185.95 293.667 2192.89 292.2 2200.49 292.2C2213.29 292.2 2223.89 296.667 2232.29 305.6V295.4ZM2332.48 384L2282.88 295.4H2324.88L2352.28 348L2378.88 295.4H2420.48L2338.08 449.2H2297.48L2332.48 384ZM2475.57 316.4H2488.57C2502.97 316.4 2510.17 310.133 2510.17 297.6C2510.17 285.067 2502.97 278.8 2488.57 278.8H2475.57V316.4ZM2475.57 398H2436.37V247.2H2498.77C2515.7 247.2 2528.64 251.6 2537.57 260.4C2546.64 269.2 2551.17 281.6 2551.17 297.6C2551.17 313.6 2546.64 326 2537.57 334.8C2528.64 343.6 2515.7 348 2498.77 348H2475.57V398ZM2599.77 346.4C2599.77 349.733 2600.37 352.867 2601.57 355.8C2602.77 358.6 2604.37 361.067 2606.37 363.2C2608.51 365.333 2610.97 367 2613.77 368.2C2616.71 369.4 2619.84 370 2623.17 370C2626.37 370 2629.37 369.4 2632.17 368.2C2635.11 367 2637.57 365.333 2639.57 363.2C2641.71 361.067 2643.37 358.6 2644.57 355.8C2645.91 353 2646.57 350 2646.57 346.8C2646.57 343.6 2645.91 340.6 2644.57 337.8C2643.37 334.867 2641.71 332.333 2639.57 330.2C2637.57 328.067 2635.11 326.4 2632.17 325.2C2629.37 324 2626.37 323.4 2623.17 323.4C2619.84 323.4 2616.71 324 2613.77 325.2C2610.97 326.4 2608.51 328.067 2606.37 330.2C2604.37 332.333 2602.77 334.8 2601.57 337.6C2600.37 340.267 2599.77 343.2 2599.77 346.4ZM2645.37 295.4H2681.77V398H2645.37V386.6C2637.64 396.333 2627.17 401.2 2613.97 401.2C2606.51 401.2 2599.64 399.867 2593.37 397.2C2587.11 394.4 2581.64 390.533 2576.97 385.6C2572.31 380.667 2568.64 374.867 2565.97 368.2C2563.44 361.533 2562.17 354.267 2562.17 346.4C2562.17 339.067 2563.44 332.133 2565.97 325.6C2568.51 318.933 2572.04 313.133 2576.57 308.2C2581.11 303.267 2586.51 299.4 2592.77 296.6C2599.04 293.667 2605.97 292.2 2613.57 292.2C2626.37 292.2 2636.97 296.667 2645.37 305.6V295.4ZM2742.61 232V398H2706.41V232H2742.61Z" fill="#27346A"/>
<g clip-path="url(#clip0_11_8)">
<path d="M359.6 217.67L359.64 217.69C360.472 213.26 363.496 210 367.28 210H475.054C475.19 210 475.326 209.93 475.462 209.94C473.166 162.15 441.095 140 412.799 140H305.025C301.233 140 298.209 143.35 297.385 147.77L297.345 147.75L250.234 418.13L250.338 418.14C250.226 418.78 250.026 419.39 250.026 420.08C250.026 425.61 253.601 429.99 258.025 429.99H322.592L359.6 217.67Z" fill="#1565C0"/>
<path d="M475.464 209.94C475.888 218.7 475.424 228.23 473.632 238.76C463.384 298.71 426.336 329.91 380.552 329.91C380.552 329.91 352.791 329.91 346.047 329.91C341.879 329.91 339.911 332.97 339.007 335.31L325.087 415.8L322.647 430.09H322.599L312.495 488.05L312.599 488.06C312.487 488.7 312.287 489.31 312.287 490C312.287 495.53 315.863 500 320.287 500H378.952L379.056 499.9C382.832 499.83 385.832 496.46 386.616 492.02L386.76 491.87L401.256 407.71C401.256 407.71 402.264 399.68 409.016 399.68C415.768 399.68 442.44 399.68 442.44 399.68C488.224 399.68 525.648 368.62 535.904 308.66C547.44 241.06 508.864 210.19 475.464 209.94Z" fill="#039BE5"/>
<path d="M367.279 210C363.487 210 360.463 213.26 359.639 217.69L359.599 217.67L338.999 335.32C339.903 332.98 341.871 329.92 346.039 329.92C352.791 329.92 379.919 329.92 379.919 329.92C425.704 329.92 463.376 298.72 473.624 238.77C475.424 228.24 475.88 218.71 475.456 209.95C475.328 209.93 475.184 210 475.056 210H367.279Z" fill="#283593"/>
</g>
<defs>
<clipPath id="clip0_11_8">
<rect width="287.998" height="360" fill="white" transform="translate(250 140)"/>
</clipPath>
</defs>
</svg>
